Coordinates
version=1
nRows=7
nColumns=40
inDegrees=yes

Units are S.I. units (second, meters, Newtons, ...)
If the header above contains a line with 'inDegrees', this indicates whether rotational values are in degrees (yes) or radians (no).

endheader
time	pelvis_tilt	pelvis_list	pelvis_rotation	pelvis_tx	pelvis_ty	pelvis_tz	hip_flexion_r	hip_adduction_r	hip_rotation_r	knee_angle_r	knee_angle_r_beta	ankle_angle_r	subtalar_angle_r	mtp_angle_r	hip_flexion_l	hip_adduction_l	hip_rotation_l	knee_angle_l	knee_angle_l_beta	ankle_angle_l	subtalar_angle_l	mtp_angle_l	lumbar_extension	lumbar_bending	lumbar_rotation	arm_flex_r	arm_add_r	arm_rot_r	elbow_flex_r	pro_sup_r	wrist_flex_r	wrist_dev_r	arm_flex_l	arm_add_l	arm_rot_l	elbow_flex_l	pro_sup_l	wrist_flex_l	wrist_dev_l
      8.65000000	     88.09558530	     89.81094205	     88.10394030	      0.26106773	      0.60855732	      0.88927302	     11.11405559	     -9.52355031	     -9.76209291	     11.27658140	      0.19681347	      3.28007291	      0.00000000	      0.00000000	      6.62959842	    -11.81672025	    -16.28019831	      7.11243835	      0.12413547	      1.57801071	      0.00000000	      0.00000000	     -0.70013358	     -4.70587367	      5.57570066	     12.40230177	      0.36413586	      1.08386876	      9.25649615	     30.23722842	      0.00000000	      0.00000000	     14.19765016	     -0.24506313	    -34.98811432	     14.68778649	     30.91392091	      0.00000000	      0.00000000
      8.65500000	     88.11259362	     89.82037936	     88.12082490	      0.26101681	      0.60846577	      0.88925915	     11.10275743	     -9.53515088	     -9.80870527	     11.29346775	      0.19710820	      3.33401012	      0.00000000	      0.00000000	      6.61089733	    -11.80268964	    -16.26146550	      7.07764680	      0.12352824	      1.62102171	      0.00000000	      0.00000000	     -0.71491427	     -4.69362955	      5.54764540	     12.43080089	      0.34568611	      1.08379468	      9.26472719	     30.22147368	      0.00000000	      0.00000000	     14.20455046	     -0.22637299	    -34.97460727	     14.69709400	     30.89482872	      0.00000000	      0.00000000
      8.66000000	     88.11975472	     89.82166705	     88.12726803	      0.26088784	      0.60838000	      0.88925017	     11.11733252	     -9.56442404	     -9.91892103	     11.35290998	      0.19814566	      3.37277000	      0.00000000	      0.00000000	      6.58268426	    -11.78915348	    -16.22485489	      7.03495135	      0.12278306	      1.65664108	      0.00000000	      0.00000000	     -0.68844196	     -4.67494660	      5.53665205	     12.41723863	      0.33506084	      1.08269555	      9.24794489	     30.19134214	      0.00000000	      0.00000000	     14.16186191	     -0.21449509	    -34.96478964	     14.69757861	     30.85934821	      0.00000000	      0.00000000
      8.66500000	     88.12207108	     89.81623125	     88.12983929	      0.26077299	      0.60834461	      0.88924827	     11.12486081	     -9.56899333	     -9.90179439	     11.38193689	      0.19865227	      3.37588442	      0.00000000	      0.00000000	      6.58485062	    -11.78725258	    -16.17107591	      7.04710305	      0.12299515	      1.66097395	      0.00000000	      0.00000000	     -0.63256967	     -4.66197054	      5.54411427	     12.36985301	      0.33367114	      1.08050661	      9.22056086	     30.18242188	      0.00000000	      0.00000000	     14.10636745	     -0.20705516	    -34.97027137	     14.67833858	     30.84941233	      0.00000000	      0.00000000
      8.67000000	     88.13995610	     89.81322284	     88.14832061	      0.26057831	      0.60818419	      0.88919816	     11.11675210	     -9.58211407	     -9.87547757	     11.40441881	      0.19904466	      3.38845422	      0.00000000	      0.00000000	      6.59105891	    -11.77865595	    -16.14019788	      7.06053443	      0.12322957	      1.66455815	      0.00000000	      0.00000000	     -0.57229635	     -4.64235416	      5.52927258	     12.34370382	      0.31518287	      1.07775554	      9.20347934	     30.17510248	      0.00000000	      0.00000000	     14.07958023	     -0.18522469	    -34.97131205	     14.67066319	     30.84170886	      0.00000000	      0.00000000
      8.67500000	     88.15408393	     89.82180484	     88.16241905	      0.26049202	      0.60806192	      0.88918122	     11.10454057	     -9.60039516	     -9.92551881	     11.42297257	      0.19936848	      3.44275721	      0.00000000	      0.00000000	      6.58796026	    -11.77097241	    -16.12495617	      7.06974904	      0.12339040	      1.70019296	      0.00000000	      0.00000000	     -0.58431324	     -4.63682242	      5.50397971	     12.36561221	      0.29600104	      1.07736405	      9.21393006	     30.15714218	      0.00000000	      0.00000000	     14.07339441	     -0.16602291	    -34.96783454	     14.69333658	     30.82052987	      0.00000000	      0.00000000
      8.68000000	     88.18285510	     89.82207354	     88.19133368	      0.26042101	      0.60783177	      0.88915669	     11.09994946	     -9.63165978	     -9.97773965	     11.45242666	      0.19988255	      3.47788458	      0.00000000	      0.00000000	      6.62271977	    -11.76233902	    -16.12160505	      7.11392572	      0.12416143	      1.72923477	      0.00000000	      0.00000000	     -0.56726561	     -4.61521932	      5.45729149	     12.36099963	      0.26970672	      1.07515337	      9.20952991	     30.13608043	      0.00000000	      0.00000000	     14.04557249	     -0.13477765	    -34.96710513	     14.70690631	     30.79624173	      0.00000000	      0.00000000
